<svg xmlns="http://www.w3.org/2000/svg" width="67.73" height="67.729" viewBox="0 0 67.73 67.729">
  <path id="iconmonstr-instagram-11" d="M33.865,6.1c9.042,0,10.114.034,13.687.2,9.177.418,13.464,4.772,13.882,13.882.164,3.57.195,4.642.195,13.684s-.034,10.114-.195,13.684c-.42,9.1-4.7,13.464-13.882,13.882-3.573.164-4.639.2-13.687.2s-10.114-.034-13.684-.2c-9.2-.42-13.464-4.795-13.882-13.885-.164-3.57-.2-4.639-.2-13.684s.037-10.111.2-13.684c.42-9.107,4.7-13.464,13.882-13.882,3.573-.161,4.642-.195,13.684-.195Zm0-6.1C24.668,0,23.516.04,19.9.2,7.605.768.77,7.591.206,19.9.04,23.516,0,24.668,0,33.865S.04,44.216.2,47.828c.564,12.3,7.388,19.134,19.7,19.7,3.615.164,4.766.2,13.964.2s10.351-.04,13.964-.2c12.287-.564,19.139-7.388,19.7-19.7.167-3.612.206-4.766.206-13.964s-.04-10.349-.2-13.961C66.973,7.617,60.141.77,47.831.206,44.216.04,43.062,0,33.865,0Zm0,16.475a17.391,17.391,0,1,0,17.39,17.39A17.39,17.39,0,0,0,33.865,16.475Zm0,28.678A11.288,11.288,0,1,1,45.153,33.865,11.287,11.287,0,0,1,33.865,45.153ZM51.943,11.726A4.064,4.064,0,1,0,56,15.789,4.065,4.065,0,0,0,51.943,11.726Z" fill="#112d4e"/>
</svg>
