<svg xmlns="http://www.w3.org/2000/svg" width="71.227" height="67.866" viewBox="0 0 71.227 67.866">
  <path id="iconmonstr-line-1" d="M71.227,29.467c0-15.934-15.976-28.9-35.614-28.9S0,13.532,0,29.467C0,43.754,12.67,55.72,29.785,57.981c1.16.249,2.736.766,3.137,1.757a7.331,7.331,0,0,1,.116,3.22l-.507,3.048c-.157.9-.718,3.52,3.084,1.92S56.124,55.85,63.594,47.25c5.161-5.66,7.633-11.405,7.633-17.783Zm-56.353-7.7a.7.7,0,0,1,.694.694V34.785h6.787a.69.69,0,0,1,.691.691v2.5a.693.693,0,0,1-.691.694H12.376a.688.688,0,0,1-.478-.193l0,0-.006-.006,0,0-.009-.009a.694.694,0,0,1-.193-.478V22.46a.693.693,0,0,1,.691-.694h2.5Zm44.493,0a.693.693,0,0,1,.692.694v2.5a.693.693,0,0,1-.692.694H52.581v2.621h6.787a.693.693,0,0,1,.692.694v2.5a.693.693,0,0,1-.692.694H52.581v2.624h6.787a.692.692,0,0,1,.692.691v2.5a.693.693,0,0,1-.692.694H49.387a.7.7,0,0,1-.481-.193l-.009-.012-.009-.009a.7.7,0,0,1-.2-.478V22.46a.694.694,0,0,1,.193-.478l.012-.012.009-.009a.7.7,0,0,1,.481-.2h9.981Zm-30.99,0a.693.693,0,0,1,.694.691V37.978a.7.7,0,0,1-.694.691h-2.5a.7.7,0,0,1-.694-.691V22.46a.693.693,0,0,1,.694-.691h2.5Zm6.313,0h.024l.036,0,.039,0,.03,0,.039.009.024.009.042.012.024.009.039.018.021.009.039.021.021.012.036.027.018.012.039.033.012.012L35.21,22l.006.006.053.068,7.111,9.6V22.46a.693.693,0,0,1,.694-.691h2.5a.691.691,0,0,1,.694.691V37.978a.693.693,0,0,1-.694.691h-2.5l-.178-.024-.012,0-.045-.015-.021-.009-.036-.012-.033-.018-.021-.009-.042-.027-.006-.006-.178-.172-7.12-9.616v9.218a.693.693,0,0,1-.694.691h-2.5a.7.7,0,0,1-.694-.691V22.46a.693.693,0,0,1,.694-.691h2.5Z" transform="translate(0 -0.566)" fill="#112d4e" fill-rule="evenodd"/>
</svg>
